<?xml version="1.0" standalone="no"?><!DOCTYPE svg PUBLIC "-//W3C//DTD SVG 1.1//EN" "http://www.w3.org/Graphics/SVG/1.1/DTD/svg11.dtd"><svg t="1620881279325" class="icon" viewBox="0 0 1024 1024" version="1.1" xmlns="http://www.w3.org/2000/svg" p-id="2589" xmlns:xlink="http://www.w3.org/1999/xlink" width="128" height="128"><defs><style type="text/css"></style></defs><path d="M509.27 510.752m-445.503 0a445.503 445.503 0 1 0 891.006 0 445.503 445.503 0 1 0-891.006 0Z" fill="#666666" p-id="2590" data-spm-anchor-id="a313x.7781069.0.i14" class=""></path><path d="M509.27 538.596m-278.439 0a278.439 278.439 0 1 0 556.878 0 278.439 278.439 0 1 0-556.878 0Z" fill="#231F20" p-id="2591"></path><path d="M509.27 510.752m-278.439 0a278.439 278.439 0 1 0 556.878 0 278.439 278.439 0 1 0-556.878 0Z" fill="#FFFFFF" p-id="2592"></path><path d="M509.27 510.752m-167.064 0a167.064 167.064 0 1 0 334.128 0 167.064 167.064 0 1 0-334.128 0Z" fill="#707070" p-id="2593" data-spm-anchor-id="a313x.7781069.0.i18" class="selected"></path><path d="M509.27 510.752m-55.688 0a55.688 55.688 0 1 0 111.376 0 55.688 55.688 0 1 0-111.376 0Z" fill="#4F5D73" p-id="2594"></path><path d="M537.114 482.908m-27.844 0a27.844 27.844 0 1 0 55.688 0 27.844 27.844 0 1 0-55.688 0Z" fill="#FFFFFF" p-id="2595"></path><path d="M620.646 399.377m-55.688 0a55.688 55.688 0 1 0 111.376 0 55.688 55.688 0 1 0-111.376 0Z" fill="#FFFFFF" p-id="2596"></path></svg>