<?xml version="1.0" standalone="no"?><!DOCTYPE svg PUBLIC "-//W3C//DTD SVG 1.1//EN" "http://www.w3.org/Graphics/SVG/1.1/DTD/svg11.dtd"><svg t="1620881154652" class="icon" viewBox="0 0 1024 1024" version="1.1" xmlns="http://www.w3.org/2000/svg" p-id="2382" xmlns:xlink="http://www.w3.org/1999/xlink" width="128" height="128"><defs><style type="text/css"></style></defs><path d="M1006.933333 588.8c-38.4-51.2-106.666667-128-196.266666-187.733333l123.733333-123.733334c17.066667-17.066667 17.066667-42.666667 0-59.733333-17.066667-17.066667-42.666667-17.066667-59.733333 0l-136.533334 140.8c-55.466667-29.866667-115.2-46.933333-179.2-55.466667V85.333333c0-25.6-17.066667-42.666667-42.666666-42.666666s-42.666667 17.066667-42.666667 42.666666v217.6c-68.266667 4.266667-128 25.6-183.466667 55.466667L149.333333 217.6c-17.066667-17.066667-42.666667-17.066667-59.733333 0-17.066667 17.066667-17.066667 42.666667 0 59.733333L213.333333 401.066667c-89.6 59.733333-157.866667 136.533333-196.266666 187.733333-21.333333 29.866667-21.333333 72.533333 0 102.4C85.333333 789.333333 281.6 981.333333 512 981.333333c230.4 0 426.666667-192 494.933333-290.133333 21.333333-29.866667 21.333333-72.533333 0-102.4zM512 789.333333c-81.066667 0-149.333333-68.266667-149.333333-149.333333s68.266667-149.333333 149.333333-149.333333 149.333333 68.266667 149.333333 149.333333-68.266667 149.333333-149.333333 149.333333z m460.8-174.933333z" p-id="2383" data-spm-anchor-id="a313x.7781069.0.i8" class="selected" fill="#666666"></path></svg>