<?xml version="1.0" standalone="no"?><!DOCTYPE svg PUBLIC "-//W3C//DTD SVG 1.1//EN" "http://www.w3.org/Graphics/SVG/1.1/DTD/svg11.dtd"><svg t="1620882632107" class="icon" viewBox="0 0 1024 1024" version="1.1" xmlns="http://www.w3.org/2000/svg" p-id="4407" xmlns:xlink="http://www.w3.org/1999/xlink" width="128" height="128"><defs><style type="text/css"></style></defs><path d="M499.424 617.664a136.16 136.16 0 0 1 136 136v109.76c0 17.6 14.368 32 32 32h144a27.456 27.456 0 0 0 27.424-27.488V490.464a27.296 27.296 0 0 0-7.36-18.688l-312-335.04A29.312 29.312 0 0 0 498.464 128a27.36 27.36 0 0 0-19.104 8.768l-312 335.04a27.456 27.456 0 0 0-7.36 18.688v377.472c0 15.136 12.288 27.456 27.424 27.456h144c17.632 0 32-14.368 32-32v-109.728a136.16 136.16 0 0 1 136-136m312 341.76h-144c-52.928 0-96-43.104-96-96v-109.76c0-39.68-32.288-72-72-72a72.096 72.096 0 0 0-72 72v109.76c0 52.896-43.072 96-96 96h-144A91.584 91.584 0 0 1 96 867.904V490.464c0-23.2 8.704-45.344 24.544-62.304l311.968-335.04A90.944 90.944 0 0 1 496.16 64a91.232 91.232 0 0 1 70.08 28.96l312.096 335.168a91.2 91.2 0 0 1 24.512 62.304v377.472a91.52 91.52 0 0 1-91.424 91.456" p-id="4408" data-spm-anchor-id="a313x.7781069.0.i23" class="selected" fill="#666666"></path></svg>